<svg id="visual" viewBox="0 0 1920 1080" width="1920" height="1080" xmlns="http://www.w3.org/2000/svg" xmlns:xlink="http://www.w3.org/1999/xlink" version="1.1"><rect x="0" y="0" width="1920" height="1080" fill="#FF9080"></rect><path d="M0 870L45.7 846.2C91.3 822.3 182.7 774.7 274.2 757.3C365.7 740 457.3 753 548.8 761.8C640.3 770.7 731.7 775.3 823 798.5C914.3 821.7 1005.7 863.3 1097 858.8C1188.3 854.3 1279.7 803.7 1371.2 765.2C1462.7 726.7 1554.3 700.3 1645.8 716.5C1737.3 732.7 1828.7 791.3 1874.3 820.7L1920 850L1920 0L1874.3 0C1828.7 0 1737.3 0 1645.8 0C1554.3 0 1462.7 0 1371.2 0C1279.7 0 1188.3 0 1097 0C1005.7 0 914.3 0 823 0C731.7 0 640.3 0 548.8 0C457.3 0 365.7 0 274.2 0C182.7 0 91.3 0 45.7 0L0 0Z" fill="#fa7268"></path><path d="M0 540L45.7 530C91.3 520 182.7 500 274.2 511.3C365.7 522.7 457.3 565.3 548.8 588C640.3 610.7 731.7 613.3 823 627.8C914.3 642.3 1005.7 668.7 1097 656C1188.3 643.3 1279.7 591.7 1371.2 581.5C1462.7 571.3 1554.3 602.7 1645.8 626.8C1737.3 651 1828.7 668 1874.3 676.5L1920 685L1920 0L1874.3 0C1828.7 0 1737.3 0 1645.8 0C1554.3 0 1462.7 0 1371.2 0C1279.7 0 1188.3 0 1097 0C1005.7 0 914.3 0 823 0C731.7 0 640.3 0 548.8 0C457.3 0 365.7 0 274.2 0C182.7 0 91.3 0 45.7 0L0 0Z" fill="#ef5f67"></path><path d="M0 587L45.7 573.3C91.3 559.7 182.7 532.3 274.2 491.3C365.7 450.3 457.3 395.7 548.8 394.3C640.3 393 731.7 445 823 449C914.3 453 1005.7 409 1097 400.7C1188.3 392.3 1279.7 419.7 1371.2 429C1462.7 438.3 1554.3 429.7 1645.8 429.3C1737.3 429 1828.7 437 1874.3 441L1920 445L1920 0L1874.3 0C1828.7 0 1737.3 0 1645.8 0C1554.3 0 1462.7 0 1371.2 0C1279.7 0 1188.3 0 1097 0C1005.7 0 914.3 0 823 0C731.7 0 640.3 0 548.8 0C457.3 0 365.7 0 274.2 0C182.7 0 91.3 0 45.7 0L0 0Z" fill="#e34c67"></path><path d="M0 335L45.7 345C91.3 355 182.7 375 274.2 383C365.7 391 457.3 387 548.8 357.2C640.3 327.3 731.7 271.7 823 248.2C914.3 224.7 1005.7 233.3 1097 242.7C1188.3 252 1279.7 262 1371.2 264C1462.7 266 1554.3 260 1645.8 272.8C1737.3 285.7 1828.7 317.3 1874.3 333.2L1920 349L1920 0L1874.3 0C1828.7 0 1737.3 0 1645.8 0C1554.3 0 1462.7 0 1371.2 0C1279.7 0 1188.3 0 1097 0C1005.7 0 914.3 0 823 0C731.7 0 640.3 0 548.8 0C457.3 0 365.7 0 274.2 0C182.7 0 91.3 0 45.7 0L0 0Z" fill="#d53867"></path><path d="M0 189L45.7 198.3C91.3 207.7 182.7 226.3 274.2 211.2C365.7 196 457.3 147 548.8 148.8C640.3 150.7 731.7 203.3 823 203.2C914.3 203 1005.7 150 1097 143.3C1188.3 136.7 1279.7 176.3 1371.2 184.8C1462.7 193.3 1554.3 170.7 1645.8 177C1737.3 183.3 1828.7 218.7 1874.3 236.3L1920 254L1920 0L1874.3 0C1828.7 0 1737.3 0 1645.8 0C1554.3 0 1462.7 0 1371.2 0C1279.7 0 1188.3 0 1097 0C1005.7 0 914.3 0 823 0C731.7 0 640.3 0 548.8 0C457.3 0 365.7 0 274.2 0C182.7 0 91.3 0 45.7 0L0 0Z" fill="#c62368"></path></svg>